<?xml version="1.0" encoding="utf-8"?>
<!-- Generator: Adobe Illustrator 18.0.0, SVG Export Plug-In . SVG Version: 6.00 Build 0)  -->
<!DOCTYPE svg PUBLIC "-//W3C//DTD SVG 1.1//EN" "http://www.w3.org/Graphics/SVG/1.1/DTD/svg11.dtd">
<svg version="1.1" id="Logo_1_" xmlns="http://www.w3.org/2000/svg" xmlns:xlink="http://www.w3.org/1999/xlink" x="0px" y="0px"
	 viewBox="0 0 557.7 166.9" enable-background="new 0 0 557.7 166.9" xml:space="preserve">
<g id="Logo">
	<g>
		<path fill="#FFFFFF" d="M66.5,0C29.8,0,0,30.2,0,66.9C0,102,26.9,131,61.2,133.8c1.6,0,3.7,0.4,5.3,0.4H133V67.3l0,0v-0.4
			C133,30.2,103.2,0,66.5,0z M110.6,60.8c-0.8,2.9-2.4,4.9-4.9,6.1c-1.6,0.8-3.3,1.2-5.3,1.2c-1.2,0-2.4-0.4-3.7-0.8
			c-0.4,0-1.2,0-2.4,0c-2.9,0-6.5,0.8-11.4,2.9l0,0c-0.4,0.4-1.6,1.2-2,2l0,0l-3.7,13.1c0,0-0.4,1.6,0.4,2.9c4.1,5.7,7.3,9,10.2,9.8
			c2.9,0.4,5.3,2,6.9,4.5c1.2,2,1.6,4.9,0.8,7.3c-0.8,2.4-2,4.5-4.5,5.7c-1.2,0.8-2.9,1.2-4.5,1.2c-3.3,0-6.5-1.6-8.2-4.9
			c-1.6-2.4-1.6-5.7-0.4-8.2c0.8-2.4,0-7.3-2.9-13.9c0,0-0.4-1.2-1.6-1.6l-13.9-3.7h-0.4c-0.8,0-1.6,0.4-1.6,0.4
			c-5.3,3.7-8.6,6.5-9,9c-0.4,2.4-1.6,4.5-3.7,5.7c-1.2,0.8-2.4,1.2-4.1,1.2c-2.9,0-5.3-1.6-6.9-4.1c-2-3.7-0.8-8.6,2.9-10.6
			c1.2-0.8,2.4-1.2,4.1-1.2c0.8,0,2,0,2.9,0.4c0.4,0,1.2,0.4,1.6,0.4c2.4,0,6.1-1.2,10.2-3.3c1.2-0.8,1.6-2,2-2.4l3.7-13.5
			c0.4-0.8-0.4-2-0.8-2.9c-5.7-7.8-10.2-12.2-13.9-13.1c-3.7-0.4-6.5-2.4-8.6-5.7c-1.6-2.9-2-6.1-1.2-9c0.8-2.9,2.9-5.7,5.3-7.3
			c1.6-1.2,3.7-1.6,5.7-1.6c4.1,0,8.2,2.4,10.2,6.1c1.6,3.3,2,6.9,0.8,10.2c-1.2,3.3,0,9.8,4.1,18.4c0,0,0.8,2,2.9,2.4l12.6,3.3
			c0.4,0,0.4,0,0.8,0c1.2,0,2.4-0.8,2.4-0.8l0,0c5.3-4.1,8.6-7.8,9-10.6c0.4-3.3,2.4-6.1,4.9-7.3c1.6-0.8,3.3-1.2,5.3-1.2
			c3.7,0,6.9,2,9,5.3C111,55.1,111.4,57.9,110.6,60.8z M205.2,46.1c-11,0-17.5,2-23.3,5.7V20c0-1.6-1.2-3.3-3.3-3.3h-14.3
			c-1.6,0-3.3,1.2-3.3,3.3v111.8c0,1.6,1.2,3.3,3.3,3.3h14.3c1.6,0,3.3-1.6,3.3-3.3V69c6.5-3.3,12.6-5.3,18-5.3
			c10.2,0,12.6,3.3,12.6,16.7v51c0,1.6,1.2,3.3,3.3,3.3h13.9c1.6,0,3.3-1.6,3.3-3.3v-51C233,61.6,226.4,46.1,205.2,46.1z M319.5,49
			H304c-1.6,0-2.9,1.2-3.3,2.4L284,117.9c0,0,0,0-0.4,0h-0.8c-0.8,0-1.6-0.8-2-3.3l-15.5-63.2c-0.4-1.2-1.6-2.9-2.9-2.9h-15.5
			c-2,0-2.9,0.8-2.9,2.4c0,0.4,0,0.8,0,1.2l20,71c3.3,11.8,9,13.1,13.5,13.1h2.4l-1.6,4.5c-2,8.2-5.7,9.8-12.2,9.8
			c-4.5,0-13.1-0.8-17.5-0.8c0,0,0,0-0.4,0c-1.6,0-3.3,1.2-3.3,2.9v9.8c0,1.6,1.6,2,3.3,2.4c3.7,1.2,11.4,2,16.3,2
			c20.8,0,26.5-7.3,31.4-24.5l25.7-90.6c0-0.4,0-0.8,0-0.8C321.9,50.2,320.7,49,319.5,49z M370.9,46.1c-9.8,0-21.2,1.6-31,4.1
			c-3.7,0.8-4.1,2-4.1,4.1v108.1c0,1.6,1.2,3.3,3.3,3.3h14.3c1.6,0,3.3-1.2,3.3-3.3V135c5.7,0.8,11,1.2,14.7,1.2
			c24.9,0,36.7-14.7,36.7-38.8V85.7C407.6,61.2,395.8,46.1,370.9,46.1z M387.6,97.1c0,12.6-3.3,22-16.3,22c-3.7,0-10.6-0.4-14.7-1.2
			V64.1c2.9-0.8,9.4-1.2,14.7-1.2c13.1,0,16.3,9.4,16.3,22V97.1z M459,46.1c-23.7,0-36.7,15.1-36.7,39.6v11.4
			c0,30.6,22,38.8,37.1,38.8c13.9,0,20-0.8,29.8-2.4c2.9-0.4,3.3-1.6,3.3-4.1v-10.2c0-1.6-1.2-2.4-2.9-2.4h-0.4
			c-6.5,0.8-17.1,1.6-28.2,1.6c-14.7,0-18.4-10.6-18.4-19.6v-0.4h50.2c2,0,3.3-1.2,3.3-4.1v-8.6C495.7,62.4,482.7,46.1,459,46.1z
			 M474.9,83.6h-32.6v-0.8c0-12.2,6.9-19.2,16.3-19.2s16.3,6.9,16.3,19.2V83.6z M554.5,46.1c-6.1,0-14.3,1.6-22,7.3v-3.3
			c0-1.6-1.2-3.3-3.3-3.3h-13.5c-1.6,0-3.3,1.2-3.3,3.3v81.2c0,1.6,1.2,3.3,3.3,3.3H530c1.6,0,3.3-1.6,3.3-3.3v-62
			c6.5-3.3,13.1-5.7,21.2-5.7c1.6,0,3.3-1.2,3.3-3.3v-11C557.3,47.7,556.1,46.1,554.5,46.1z"/>
	</g>
</g>
</svg>
